<svg width="41" height="40" viewBox="0 0 41 40" fill="none" xmlns="http://www.w3.org/2000/svg">
<g id="si:heart-duotone">
<g id="Group">
<path id="Vector" d="M20.0549 10.1315L20.5007 11.0089L20.9464 10.1315C22.3465 7.37548 25.1239 5.5 28.3273 5.5C32.9195 5.5 36.6673 9.34086 36.6673 14.135C36.6673 18.9972 34.2062 23.1645 29.8833 27.2256L29.8832 27.2257C27.8559 29.1311 25.4451 30.9687 23.5344 32.3338C22.5804 33.0153 21.7539 33.577 21.1664 33.9681C20.8846 34.1556 20.6579 34.3037 20.4986 34.407C20.3342 34.3021 20.0988 34.1504 19.806 33.958C19.204 33.5624 18.3603 32.9953 17.395 32.3104C15.4608 30.9378 13.0535 29.1024 11.1237 27.2311C7.24713 23.4717 4.33398 18.974 4.33398 14.135C4.33398 9.35532 8.08236 5.5 12.674 5.5C15.8774 5.5 18.6548 7.37548 20.0549 10.1315Z" stroke="#0D713D"/>
<path id="Vector_2" d="M28.3273 5C24.9206 5 21.979 6.995 20.5007 9.905C19.0223 6.995 16.0807 5 12.674 5C7.79065 5 3.83398 9.095 3.83398 14.135C3.83398 19.175 6.86232 23.795 10.7757 27.59C14.689 31.385 20.5007 35 20.5007 35C20.5007 35 26.124 31.445 30.2256 27.59C34.6006 23.48 37.1673 19.19 37.1673 14.135C37.1673 9.08 33.2106 5 28.3273 5Z" stroke="#0D713D" stroke-width="1.5" stroke-linecap="round" stroke-linejoin="round"/>
</g>
</g>
</svg>
