<svg width="41" height="32" viewBox="0 0 41 32" fill="none" xmlns="http://www.w3.org/2000/svg">
<path id="Vector" d="M6.34623 9.16476C6.34656 7.58461 6.75535 6.03139 7.53293 4.65581C8.31051 3.28023 9.43047 2.12901 10.7841 1.31386C12.1378 0.498723 13.6792 0.0473424 15.2587 0.00352563C16.8382 -0.0402911 18.4023 0.324944 19.7991 1.06379C21.1958 1.80263 22.3779 2.88999 23.2305 4.22035C24.0832 5.55071 24.5774 7.07889 24.6654 8.65658C24.7533 10.2343 24.4319 11.8079 23.7324 13.2248C23.0328 14.6416 21.9789 15.8536 20.6729 16.7431C23.4854 17.7746 25.9249 19.6243 27.6773 22.0539C29.4297 24.4836 30.415 27.3821 30.5062 30.3764C30.5024 30.6993 30.3739 31.0081 30.1476 31.2385C29.9214 31.4688 29.6149 31.6028 29.2922 31.6125C28.9695 31.6222 28.6555 31.5068 28.4159 31.2904C28.1762 31.074 28.0295 30.7734 28.0062 30.4514C27.907 27.2039 26.5471 24.1225 24.2149 21.8604C21.8826 19.5984 18.7612 18.3333 15.5121 18.3333C12.263 18.3333 9.14156 19.5984 6.80928 21.8604C4.477 24.1225 3.11715 27.2039 3.0179 30.4514C3.00121 30.7778 2.85736 31.0847 2.61717 31.3063C2.37697 31.5279 2.05953 31.6467 1.73286 31.6371C1.40618 31.6275 1.09625 31.4903 0.869469 31.255C0.642685 31.0197 0.517081 30.7049 0.519567 30.3781C0.610486 27.3835 1.59558 24.4846 3.34804 22.0546C5.10051 19.6246 7.54014 17.7748 10.3529 16.7431C9.11803 15.9021 8.10745 14.772 7.40913 13.4511C6.71081 12.1303 6.34592 10.6588 6.34623 9.16476ZM15.5129 2.49809C13.7448 2.49809 12.0491 3.20047 10.7989 4.45071C9.54861 5.70095 8.84623 7.39665 8.84623 9.16476C8.84623 10.9329 9.54861 12.6286 10.7989 13.8788C12.0491 15.129 13.7448 15.8314 15.5129 15.8314C17.281 15.8314 18.9767 15.129 20.2269 13.8788C21.4772 12.6286 22.1796 10.9329 22.1796 9.16476C22.1796 7.39665 21.4772 5.70095 20.2269 4.45071C18.9767 3.20047 17.281 2.49809 15.5129 2.49809ZM29.3296 9.16476C29.084 9.16476 28.8429 9.18142 28.6062 9.21476C28.441 9.24434 28.2715 9.24035 28.1078 9.203C27.9442 9.16566 27.7897 9.09573 27.6537 8.9974C27.5176 8.89907 27.4028 8.77434 27.316 8.63066C27.2292 8.48697 27.1722 8.32728 27.1485 8.1611C27.1247 7.99493 27.1347 7.82567 27.1778 7.66343C27.2209 7.50119 27.2962 7.34929 27.3993 7.2168C27.5024 7.08431 27.6311 6.97393 27.7777 6.89226C27.9244 6.81058 28.086 6.75929 28.2529 6.74142C29.9105 6.50176 31.6008 6.82009 33.0577 7.6463C34.5146 8.47251 35.6554 9.7597 36.3006 11.3053C36.9458 12.8509 37.0587 14.5672 36.6216 16.184C36.1846 17.8008 35.2223 19.2264 33.8862 20.2364C35.8502 21.1158 37.5178 22.5448 38.6877 24.3508C39.8576 26.1569 40.4799 28.2629 40.4796 30.4148C40.4796 30.7463 40.3479 31.0642 40.1134 31.2986C39.879 31.5331 39.5611 31.6648 39.2296 31.6648C38.898 31.6648 38.5801 31.5331 38.3457 31.2986C38.1113 31.0642 37.9796 30.7463 37.9796 30.4148C37.9802 28.5548 37.3812 26.7442 36.2716 25.2515C35.162 23.7588 33.6008 22.6635 31.8196 22.1281L30.9296 21.8614V19.0681L31.6129 18.7198C32.6258 18.2067 33.4363 17.3672 33.9134 16.3368C34.3905 15.3065 34.5065 14.1454 34.2426 13.041C33.9787 11.9366 33.3503 10.9534 32.4589 10.2501C31.5675 9.54682 30.465 9.16445 29.3296 9.16476Z" fill="#0D713D"/>
</svg>
